<?xml version="1.0" encoding="utf-8"?>
<!-- Generator: Adobe Illustrator 22.1.0, SVG Export Plug-In . SVG Version: 6.00 Build 0)  -->
<svg version="1.1" id="Layer_1" xmlns="http://www.w3.org/2000/svg" xmlns:xlink="http://www.w3.org/1999/xlink" x="0px" y="0px"
	 viewBox="0 0 500 500" style="enable-background:new 0 0 500 500;" xml:space="preserve">
<style type="text/css">
	.st0{fill:#F5DE19;}
	.st1{clip-path:url(#SVGID_2_);}
	.st2{fill:none;stroke:#000000;stroke-width:4;stroke-linecap:round;stroke-linejoin:round;stroke-miterlimit:10;}
	.st3{fill:#9DE0FC;}
	.st4{fill:#628C9E;}
	.st5{fill:#FFFFFF;}
</style>
<g>
	<path class="st3" d="M138.8,175.1c3.4,44.6,6.6,81.1,26.4,108.4c5.4,7.4,15.2,20.5,31.7,23.8c18.9,3.8,35.9-7.2,37-7.9
		c11.4-7.6,11.6-14.8,23.8-21.1c9.5-4.9,18.4-5.2,23.8-5.3c8.8-0.2,25.7,1.4,68.7,29.1c23.3,15,32,24.8,39.7,21.1
		c12.7-6.1,3.2-40,15.9-44.9c7-2.8,16.7,5,21.1,10.6c9.2,11.5,6.7,26.2,5.3,34.4c-1.2,6.9-5.7,33-26.4,42.3
		c-19.6,8.7-41.2-3-50.2-7.9c-16.2-8.8-17.6-16.7-39.7-29.1c-12.6-7-18.8-10.5-26.4-10.6c-19-0.1-25.1,18.1-47.6,31.7
		c-3.6,2.2-35.9,20.5-71.4,10.6c-6.3-1.8-30.1-9.4-44.9-31.7c-16.2-24.4-3.3-38.5-18.5-95.2c-7-25.9-13-35.4-21.1-42.3
		c-13.5-11.4-25.3-8.9-29.1-18.5c-5.5-13.9,9.8-39.3,31.7-44.9c13.9-3.6,30,0.4,39.7,10.6C137.4,147.7,137.7,159.7,138.8,175.1z"/>
	<path class="st4" d="M398.4,373.8c-15.2,0-29.2-7.6-36.2-11.4c-7.8-4.3-12.3-8.3-17.1-12.7c-5.4-4.9-11.1-10-22.6-16.4
		c-12.2-6.8-18.2-10.2-25.2-10.2c0,0-0.1,0-0.1,0c-10.3,0-16.4,5.9-24.7,14c-5.7,5.5-12.2,11.8-21.3,17.4
		c-1.4,0.9-35.9,21.4-73.5,10.9c-9.1-2.6-31.9-10.9-46.4-32.8c-8.9-13.4-9.4-24-10.1-38.8c-0.7-13.6-1.5-30.5-8.7-57.2
		c-6.9-25.7-12.9-34.7-20.3-41c-6-5-11.5-7.2-16.4-9.1c-5.9-2.3-11-4.3-13.4-10.5c-2.4-6.2-1.4-14.6,2.9-23
		c6.4-12.4,18.1-22.2,30.6-25.4c15.2-3.9,32.1,0.6,42.2,11.3c9.2,9.7,10,21.7,11.1,35.6l0.2,3c3.3,42.8,6.1,79.8,25.9,107
		c5,6.8,14.3,19.6,30.1,22.8c18,3.6,34.3-7.1,35-7.5c4.9-3.3,7.7-6.5,10.3-9.7c3.3-3.9,6.7-7.9,13.7-11.6c10.2-5.3,19.8-5.5,25-5.6
		c11.1-0.2,28.9,2.9,70.2,29.5c6.8,4.3,12.4,8.3,16.9,11.5c11.2,7.9,16.3,11.3,20.2,9.5c5-2.4,5.7-11.7,6.4-20.7
		c0.8-10.4,1.7-21.3,9.6-24.3c8.4-3.3,19,5,24.2,11.4c10,12.4,7.3,28.1,5.8,36.5c-3.9,22.9-13.4,37.7-28,44.3
		C409.4,372.9,403.8,373.8,398.4,373.8z M297.3,317.8c0.1,0,0.1,0,0.2,0c8.3,0,14.8,3.7,27.7,10.9c12,6.7,18.2,12.3,23.5,17.1
		c4.7,4.3,8.8,8,16.1,11.9c8.8,4.8,29.5,16,47.9,7.8c12.9-5.8,21.3-19.3,24.9-40.3c1.4-8.1,3.8-21.7-4.7-32.3
		c-4.2-5.2-12.8-11.9-18.1-9.8c-4.8,1.9-5.5,11-6.2,19.8c-0.8,10.5-1.7,21.3-9.4,25c-6.8,3.3-13.5-1.4-25.5-9.9
		c-4.5-3.2-10.1-7.1-16.7-11.4c-45.2-29.1-61.2-28.8-67.2-28.7c-4.7,0.1-13.5,0.3-22.6,5c-6.1,3.2-8.9,6.5-12.1,10.3
		c-2.8,3.3-5.9,7-11.4,10.7c-0.8,0.5-18.9,12.4-39,8.3c-17.9-3.6-28.3-17.9-33.3-24.8c-20.7-28.4-23.6-66.1-26.9-109.7l-0.2-3
		c-1-13.4-1.8-24-9.6-32.3c-8.8-9.3-23.7-13.3-37.1-9.8c-13.3,3.4-22.8,14-27.2,22.7c-3.6,7.1-4.6,13.9-2.7,18.7
		c1.5,3.8,4.6,5.2,10.4,7.5c5,1.9,11.3,4.4,17.9,10c8.2,6.9,14.7,16.6,22,43.6c7.3,27.3,8.2,44.5,8.9,58.3
		c0.7,14.4,1.2,23.9,9.3,36.1c13.6,20.4,34.9,28.2,43.5,30.6c35.4,10,67.9-9.5,69.3-10.3c8.7-5.3,14.9-11.3,20.4-16.6
		C277.4,325,284.8,317.8,297.3,317.8z"/>
	<g>
		<line class="st5" x1="118.6" y1="248.6" x2="150.7" y2="237.2"/>
		
			<rect x="117.6" y="240.3" transform="matrix(0.9419 -0.3359 0.3359 0.9419 -73.7769 59.3461)" class="st4" width="34.1" height="5.3"/>
	</g>
	<g>
		<line class="st5" x1="124.7" y1="293.6" x2="166.6" y2="279.5"/>
		
			<rect x="123.6" y="283.9" transform="matrix(0.9477 -0.3193 0.3193 0.9477 -83.8633 61.506)" class="st4" width="44.2" height="5.3"/>
	</g>
	<g>
		<line class="st5" x1="147.6" y1="347.8" x2="192.1" y2="304.1"/>
		
			<rect x="138.7" y="323.3" transform="matrix(0.7139 -0.7002 0.7002 0.7139 -179.6427 212.2108)" class="st4" width="62.3" height="5.3"/>
	</g>
	<g>
		<line class="st5" x1="213.3" y1="366.3" x2="222.1" y2="311.2"/>
		
			<rect x="189.8" y="336.1" transform="matrix(0.1582 -0.9874 0.9874 0.1582 -151.2206 500.08)" class="st4" width="55.8" height="5.3"/>
	</g>
	<g>
		<line class="st5" x1="264.4" y1="337.6" x2="246.3" y2="298"/>
		
			<rect x="252.7" y="296" transform="matrix(0.91 -0.4146 0.4146 0.91 -108.7726 134.4544)" class="st4" width="5.3" height="43.6"/>
	</g>
	<g>
		<line class="st5" x1="293.5" y1="319.1" x2="285.5" y2="274.2"/>
		
			<rect x="286.9" y="273.8" transform="matrix(0.9848 -0.1738 0.1738 0.9848 -47.1495 54.8243)" class="st4" width="5.3" height="45.6"/>
	</g>
	<g>
		<line class="st5" x1="322.5" y1="329.7" x2="340.2" y2="293.6"/>
		
			<rect x="311.3" y="309" transform="matrix(0.4386 -0.8987 0.8987 0.4386 -94.0415 472.7329)" class="st4" width="40.2" height="5.3"/>
	</g>
	<g>
		<line class="st5" x1="362.2" y1="358.8" x2="382" y2="319.6"/>
		
			<rect x="350.1" y="336.5" transform="matrix(0.4511 -0.8925 0.8925 0.4511 -98.458 518.2546)" class="st4" width="43.9" height="5.3"/>
	</g>
	<g>
		<line class="st5" x1="417.3" y1="366.7" x2="403.2" y2="321.8"/>
		
			<rect x="407.6" y="320.7" transform="matrix(0.9542 -0.2993 0.2993 0.9542 -84.231 138.5683)" class="st4" width="5.3" height="47.1"/>
	</g>
	<circle class="st4" cx="105.8" cy="155.2" r="5.3"/>
	<circle class="st4" cx="86" cy="151.3" r="4"/>
	<path class="st4" d="M103.1,176.4c-0.1,0-0.2,0-0.2,0c-29.6-2.7-38.1-9.6-38.5-9.9c-1.1-0.9-1.3-2.6-0.3-3.7
		c0.9-1.1,2.6-1.3,3.7-0.4c0.2,0.1,8.3,6.2,35.6,8.7c1.5,0.1,2.5,1.4,2.4,2.9C105.6,175.4,104.5,176.4,103.1,176.4z"/>
</g>
</svg>
