<?xml version="1.0" encoding="utf-8"?>
<!-- Generator: Adobe Illustrator 22.1.0, SVG Export Plug-In . SVG Version: 6.00 Build 0)  -->
<svg version="1.1" id="Layer_1" xmlns="http://www.w3.org/2000/svg" xmlns:xlink="http://www.w3.org/1999/xlink" x="0px" y="0px"
	 viewBox="0 0 200 200" style="enable-background:new 0 0 200 200;" xml:space="preserve">
<style type="text/css">
	.st0{fill:none;stroke:#000000;stroke-width:4;stroke-linecap:round;stroke-linejoin:round;stroke-miterlimit:10;}
	.st1{fill:#F5DE19;}
	.st2{clip-path:url(#SVGID_2_);}
</style>
<symbol  id="New_Symbol" viewBox="-6 -24.5 12 49">
	<g>
		<path class="st0" d="M4,22.5c0-4.5-8-4.5-8-9C-4,9,4,9,4,4.5C4,0-4,0-4-4.5c0-4.5,8-4.5,8-9c0-4.5-8-4.5-8-9"/>
	</g>
</symbol>
<g>
	<g>
		<rect x="14" y="14" class="st1" width="172" height="172"/>
		<path d="M188,188H12V12h176V188z M16,184h168V16H16V184z"/>
	</g>
	<g>
		<defs>
			<rect id="SVGID_1_" x="14" y="14" width="172" height="172"/>
		</defs>
		<clipPath id="SVGID_2_">
			<use xlink:href="#SVGID_1_"  style="overflow:visible;"/>
		</clipPath>
		<g class="st2">
			
				<use xlink:href="#New_Symbol"  width="12" height="49" x="-6" y="-24.5" transform="matrix(0.376 -0.9266 -0.9266 -0.376 162.4336 126.0976)" style="overflow:visible;"/>
			
				<use xlink:href="#New_Symbol"  width="12" height="49" x="-6" y="-24.5" transform="matrix(0.4041 -1.2168 -1.2168 -0.4041 14.2653 31.5122)" style="overflow:visible;"/>
			
				<use xlink:href="#New_Symbol"  width="12" height="49" x="-6" y="-24.5" transform="matrix(0.511 0.6032 0.6032 -0.511 157.483 21.0201)" style="overflow:visible;"/>
			
				<use xlink:href="#New_Symbol"  width="12" height="49" x="-6" y="-24.5" transform="matrix(-1.363 -0.6064 -0.6064 1.363 65.3763 53.2685)" style="overflow:visible;"/>
			
				<use xlink:href="#New_Symbol"  width="12" height="49" x="-6" y="-24.5" transform="matrix(0.5515 0.5737 0.5737 -0.5515 67.1867 149.2679)" style="overflow:visible;"/>
			
				<use xlink:href="#New_Symbol"  width="12" height="49" x="-6" y="-24.5" transform="matrix(-0.9344 0.3561 0.3561 0.9344 111.151 29.7855)" style="overflow:visible;"/>
			
				<use xlink:href="#New_Symbol"  width="12" height="49" x="-6" y="-24.5" transform="matrix(0.9834 -0.1812 -0.1812 -0.9834 212.5505 127.9303)" style="overflow:visible;"/>
			
				<use xlink:href="#New_Symbol"  width="12" height="49" x="-6" y="-24.5" transform="matrix(0.6399 -0.7684 -0.7684 -0.6399 132.6791 182.0157)" style="overflow:visible;"/>
			
				<use xlink:href="#New_Symbol"  width="12" height="49" x="-6" y="-24.5" transform="matrix(-0.9512 -0.3085 -0.3085 0.9512 113.1858 123.7452)" style="overflow:visible;"/>
			
				<use xlink:href="#New_Symbol"  width="12" height="49" x="-6" y="-24.5" transform="matrix(-0.2092 0.9779 0.9779 0.2092 179.6636 57.2527)" style="overflow:visible;"/>
			
				<use xlink:href="#New_Symbol"  width="12" height="49" x="-6" y="-24.5" transform="matrix(0.6163 0.2 0.2 -0.6163 83.0868 174.9609)" style="overflow:visible;"/>
			
				<use xlink:href="#New_Symbol"  width="12" height="49" x="-6" y="-24.5" transform="matrix(-0.4348 -0.5506 -0.5506 0.4348 17.8469 73.8377)" style="overflow:visible;"/>
			
				<use xlink:href="#New_Symbol"  width="12" height="49" x="-6" y="-24.5" transform="matrix(0.2763 -0.9549 -0.9549 -0.2763 149.9842 84.271)" style="overflow:visible;"/>
			
				<use xlink:href="#New_Symbol"  width="12" height="49" x="-6" y="-24.5" transform="matrix(-0.7925 -0.2159 -0.2159 0.7925 88.612 93.1851)" style="overflow:visible;"/>
			
				<use xlink:href="#New_Symbol"  width="12" height="49" x="-6" y="-24.5" transform="matrix(0.8328 -1.6522 -1.6522 -0.8328 186.3334 176.4374)" style="overflow:visible;"/>
			
				<use xlink:href="#New_Symbol"  width="12" height="49" x="-6" y="-24.5" transform="matrix(0.374 -1.7112 -1.7112 -0.374 21.1758 112.6705)" style="overflow:visible;"/>
			
				<use xlink:href="#New_Symbol"  width="12" height="49" x="-6" y="-24.5" transform="matrix(0.3722 -0.8292 -0.8292 -0.3722 13.9407 157.8071)" style="overflow:visible;"/>
		</g>
	</g>
</g>
</svg>
